<svg width="316" height="407" viewBox="0 0 316 407" fill="none" xmlns="http://www.w3.org/2000/svg">
<path d="M252.357 407L252.361 406.247L253.056 406.244L253.293 407H252.357Z" fill="#B4B4B5"/>
<path d="M14.523 10.2433V16.6667C12.2644 17.696 11.8025 18.9505 12.2135 20.9897C12.8534 24.158 17.6801 23.0998 20.3922 23.0644C22.672 23.0355 25.096 24.1001 26.6342 21.7199C27.1682 20.8932 28.1386 18.4583 25.757 18.9344C25.9774 18.7253 26.3503 18.5966 26.6851 18.5484L26.6935 17.8022C24.0535 18.3425 24.6129 12.6782 24.7993 11.1536C24.8629 10.655 25.2782 10.3044 25.2867 10.2401H42.1398C42.1906 12.3759 42.1016 14.5277 42.1398 16.6635C39.042 17.5802 38.6988 22.3954 42.0041 23.0065C47.4919 22.4275 55.0476 25.7502 54.3103 18.9312C54.2764 18.6127 54.4628 17.9758 54.2552 17.8279L52.8737 17.5899C52.9118 15.1421 52.933 12.6846 52.9076 10.2401H69.7607V16.6635C66.663 17.5802 66.3197 22.3954 69.6251 23.0065C70.8921 23.2413 79.0538 23.2735 80.1938 23.0065C82.2278 22.5337 82.0795 20.2885 81.9312 18.9312C81.8973 18.6127 82.0838 17.9758 81.8761 17.8279L80.4946 17.5899C80.5328 15.1421 80.554 12.6846 80.5285 10.2401H97.3816V16.6635C94.6484 17.4644 94.0254 21.4015 96.2671 22.6623C98.0724 23.6788 103.78 23.682 106.001 23.4311C110.34 22.939 111.497 19.0727 108.149 17.0431V10.2401H125.003C125.079 12.3726 124.948 14.5309 125.003 16.6635C121.905 17.5802 121.562 22.3954 124.867 23.0065C126.155 23.2445 134.787 23.2478 135.762 22.8939C137.398 22.2989 138.983 18.9054 136.237 18.5548C136.444 18.4101 137.563 18.9247 137.173 17.7989L135.737 17.5931C135.77 15.1453 135.796 12.6879 135.766 10.2401H152.619C152.564 12.6171 153.23 15.8079 151.683 17.7989C151.522 18.0048 150.623 18.1206 150.373 18.8121C149.725 20.6038 150.356 22.746 152.882 23.0676C154.327 23.251 161.862 23.2896 163.052 23.0129C165.086 22.5401 164.938 20.295 164.79 18.9376C164.756 18.6192 164.942 17.9823 164.735 17.8343L163.353 17.5963C163.391 15.1485 163.413 12.6911 163.387 10.2465H180.24V17.0495C176.6 17.8858 176.842 22.7138 180.935 23.103C182.626 23.2638 190.148 23.2831 191.275 22.7428C193.513 21.6716 193.419 18.0305 191.008 17.0495V10.2465H207.861C207.815 12.1185 208.416 16.5541 206.925 17.8054C206.573 18.0981 205.302 17.934 205.484 18.735C205.535 20.028 205.166 21.8775 206.738 22.6784C207.882 23.2638 215.769 23.2928 217.481 23.1159C221.057 22.746 221.608 17.9501 218.159 17.0495C218.159 16.924 218.159 16.7986 218.159 16.6732C218.201 14.4891 218.574 12.2343 218.625 10.2497H235.478C235.436 12.1218 236.033 16.5574 234.541 17.8086C234.19 18.1013 232.918 17.9372 233.101 18.7382C233.151 20.0312 232.783 21.8807 234.355 22.6816C235.499 23.2671 243.385 23.296 245.097 23.1191C248.721 22.7428 249.17 17.889 245.775 17.0527C245.877 15.1035 245.64 13.1189 245.758 11.1664C245.788 10.6775 246.242 10.3012 246.246 10.2529H263.099C263.078 12.0124 263.54 16.6153 262.162 17.8118C261.806 18.1206 260.539 17.9501 260.722 18.7414C260.772 20.0344 260.404 21.8839 261.976 22.6849C263.12 23.2703 271.006 23.2992 272.718 23.1223C276.244 22.7556 276.634 18.4841 273.867 17.0559C273.879 16.9305 273.854 16.8018 273.867 16.6796C274.04 14.6178 273.837 12.3533 273.867 10.2562H290.72C290.796 12.3887 290.665 14.547 290.72 16.6796C288.101 17.413 287.414 21.1956 289.33 22.524C290.521 23.3475 297.966 23.2735 299.877 23.1255C304.255 22.791 304.289 18.3425 301.017 16.6796C301.784 14.6178 301.466 12.3919 301.483 10.2562L315.26 10.2336C315.4 10.2529 315.989 11.9674 315.997 12.1443C316.04 13.2218 315.514 14.2028 315.506 15.3383C315.307 40.3404 315.523 65.3619 315.527 90.3608C315.527 99.6759 315.527 109.007 315.527 118.322C315.527 130.786 315.527 143.266 315.527 155.73V173.869C315.527 174.499 315.527 175.129 315.527 175.757C315.527 176.638 315.527 177.523 315.527 178.401V181.045C315.527 190.736 315.527 200.447 315.527 210.141V252.461C315.527 255.479 315.527 258.512 315.527 261.529C315.527 264.8 315.527 268.084 315.527 271.352C314.417 271.568 314.472 270.873 314.349 270.242C314.044 268.67 314.349 267.267 314.124 265.865C314.035 265.315 313.768 264.694 313.188 265.305C313.103 266.614 313.306 267.955 313.179 269.268C312.993 271.182 312.196 273.884 312.205 275.701C312.213 277.377 313.98 279.49 313.184 281.552C312.811 281.861 309.23 280.387 308.73 280.046C307.789 279.406 307.073 277.563 306.158 277.209C305.441 276.93 304.53 277.135 303.831 276.82C303.132 276.505 302.026 274.389 301.28 273.964C300.534 273.539 299.369 273.71 299.195 273.572C299.021 273.433 299.229 272.478 298.712 271.886C298.064 271.14 295.169 270.477 294.212 269.847C293.169 269.158 289.995 267.145 289.317 266.617C288.639 266.09 288.978 265.18 288.169 264.52C287.499 263.97 286.147 263.912 285.321 263.42C283.541 262.362 281.533 260.062 279.943 258.689C279.469 258.28 278.511 258.049 278.274 257.743C277.829 257.167 278.77 255.906 278.024 255.138C273.956 255.816 275.146 254.983 273.155 253.59C271.468 252.416 267.561 249.47 266.158 248.656C265.425 248.232 264.4 248.36 263.756 247.952C263.023 247.489 262.794 245.977 262.014 245.391C260.12 243.967 256.569 242.635 254.42 241.11C253.098 240.174 251.67 238.109 250.776 237.456C249.882 236.803 247.102 236.334 246.356 235.732C244.046 233.86 241.589 231.4 239.046 229.54C237.91 228.71 235.55 227.787 234.787 227.122C233.808 226.272 233.694 224.23 233.143 223.911C232.473 223.525 230.49 223.776 229.134 222.992C227.965 222.313 225.723 219.453 224.494 218.804C219.854 216.346 216.451 213.979 212.501 210.72C208.671 207.559 203.848 205.391 200.606 202.56C199.954 201.991 199.755 200.727 199.182 200.308C198.538 199.839 197.538 199.977 196.822 199.569C195.165 198.623 193.394 196.548 191.69 195.4C189.593 193.988 189.711 194.22 187.741 192.544C187.16 192.052 185.092 191.305 184.999 191.17C184.601 190.598 185.313 189.189 184.465 188.761C183.842 188.446 182.571 188.719 181.63 188.404C180.134 187.899 179.622 186.043 179.164 185.676C178.884 185.451 177.672 185.4 176.956 185.001C175.825 184.374 175.494 183.274 174.303 182.608C173.337 182.068 171.922 181.968 171.078 181.434C169.845 180.649 168.722 178.301 167.549 177.481C164.76 175.531 160.039 173.325 157.247 171.434C156.192 170.72 155.026 168.69 153.98 168.024C153.179 167.513 151.67 167.468 151.145 166.911C150.509 166.229 150.937 164.92 150.284 164.582C149.721 164.293 148.619 164.557 147.92 164.222C147.479 164.013 147.267 163.257 146.746 162.903C144.936 161.675 136.067 156.129 135.491 154.962C135.143 154.254 136.232 153.427 135.283 152.877C134.457 152.417 133.419 153.331 132.461 152.916C131.91 152.675 131.736 151.896 131.173 151.559C130.317 151.044 128.524 150.465 127.918 149.947C127.469 149.561 127.473 148.802 126.837 148.361C125.977 147.763 124.681 147.946 123.765 147.425C122.062 146.457 119.824 143.749 118.655 142.877C117.201 141.796 117.205 142.925 115.07 140.465C114.243 139.513 113.095 139.825 113.73 137.589C112.226 137.142 112.319 138.914 110.993 138.278C110.874 138.22 110.561 137.345 110.023 137.001C106.306 134.643 104.624 132.559 101.539 130.236C98.7589 128.142 92.9618 125.675 90.576 123.215C89.0886 121.68 90.059 122.275 87.991 120.773C86.3977 119.615 84.3297 117.679 82.7999 116.643C81.4312 115.714 79.0115 115.328 77.6512 113.996C76.5663 112.938 76.6214 111.32 75.6086 110.734C74.4899 110.088 71.9516 110.355 71.121 109.824C70.498 109.425 70.765 108.428 70.2353 107.891C69.7056 107.354 68.6038 107.463 68.0953 106.974C67.6249 106.521 67.7521 105.591 67.2732 105.179C65.9129 104.018 62.2474 102.789 60.8617 101.853C57.0817 99.2996 53.5602 96.2438 49.8395 93.7414C48.8946 93.1045 46.2545 92.0559 45.9113 90.8497C45.7333 90.2161 46.7164 89.4795 45.8477 89.0259C42.7839 89.6113 41.7796 87.4724 39.8599 86.1954C37.1902 84.4199 36.4359 83.7669 34.1348 81.8531C31.9736 80.055 28.2784 78.9357 26.8503 77.5332C26.1045 76.7999 26.0155 75.6516 25.6087 75.3235C25.1553 74.9568 23.795 74.9954 23.1043 74.5097C22.4686 74.0594 22.4305 73.1877 21.744 72.5862C20.7651 71.7306 18.2776 71.0005 17.1207 70.2735C12.9382 67.6553 10.0269 64.9083 6.29778 61.9974C5.83164 61.6307 4.7468 61.2672 4.70019 61.2029C4.3866 60.7558 5.11124 60.0321 5.08158 59.5367C5.04344 58.932 4.19167 58.649 4.16201 58.0539C4.15353 57.9027 6.53509 57.2337 4.39932 55.5933L0.00488281 56.7223V10.2433H14.5188H14.523Z" fill="#FFFEDA"/>
<path d="M298.708 10.2434H293.089V16.6668H298.708V10.2434Z" fill="#F6F6F6"/>
<path d="M273.426 0.0405273V0.416862C272.748 5.13552 272.718 10.4911 272.955 15.3609C272.989 16.0878 272.472 16.8759 273.892 16.6668C273.879 16.7923 273.905 16.9209 273.892 17.0431C273.803 17.8537 272.968 19.2561 273.422 20.4462H271.553C271.616 19.1982 271.451 17.9116 271.553 16.6668C271.93 11.9803 272.091 7.28417 272.027 2.49153C272.019 1.85144 272.328 0.812496 271.553 0.420079C272.095 -0.104217 272.773 0.104858 273.426 0.0437439V0.0405273Z" fill="#D2D2D2"/>
<path d="M293.089 0.796141C291.144 5.76891 292.402 11.5394 292.623 16.6665C292.648 17.268 292.796 20.3881 292.385 20.446C291.487 20.5746 291.262 20.6711 291.212 19.8895C291.144 18.8216 291.245 17.7312 291.212 16.6633C291.055 11.385 291.326 6.07448 291.212 0.792924L292.377 0.410156L293.085 0.792924L293.089 0.796141Z" fill="#D5D5D5"/>
<path d="M300.581 0.419873C300.683 5.82687 300.441 11.2628 300.581 16.6666C300.615 17.995 300.678 19.1433 301.047 20.4428H299.411C299.009 20.401 299.14 17.2488 299.174 16.6666C299.178 16.5926 299.649 16.0651 299.678 15.3896C299.878 10.4137 299.458 5.39264 299.644 0.419873C299.763 0.387707 299.827 0.133601 300.208 0.1529C300.382 0.159333 300.462 0.384491 300.581 0.419873Z" fill="#D2D2D2"/>
<path d="M299.645 0.419849C299.458 5.39583 299.882 10.4136 299.679 15.3896C299.653 16.0651 299.178 16.5958 299.174 16.6666H298.708V10.2432C298.708 7.05235 298.721 3.85189 298.691 0.657873C298.81 0.194692 299.395 0.490613 299.645 0.416633V0.419849Z" fill="#A3A3A5"/>
<path d="M271.553 16.6667H271.087V10.2433C271.087 7.98848 271.184 5.69509 271.087 3.44029C271.044 2.47533 271.244 1.31738 271.087 0.416748H271.553C272.328 0.809166 272.019 1.85132 272.028 2.4882C272.091 7.28084 271.926 11.977 271.553 16.6635V16.6667Z" fill="#A3A3A5"/>
<path d="M300.581 0.419866C300.835 0.493846 301.416 0.194708 301.535 0.661106C301.479 3.85513 301.547 7.05558 301.518 10.2464C301.496 12.3822 301.818 14.608 301.051 16.6698H300.585C300.445 11.2628 300.687 5.83008 300.585 0.423082L300.581 0.419866Z" fill="#939396"/>
<path d="M293.089 10.2431V16.6665H292.623C292.407 11.5394 291.144 5.76891 293.089 0.796143C293.547 1.93158 293.089 8.41612 293.089 10.2431Z" fill="#6E6E71"/>
<path d="M291.216 16.6665H290.749C290.694 14.5307 290.826 12.3756 290.749 10.2431C290.703 8.90821 290.275 7.77599 290.283 6.46364C290.288 5.70454 290.635 4.69133 290.749 3.81964C290.855 3.01873 290.627 2.16313 290.749 1.35256L291.216 0.799316C291.33 6.08087 291.059 11.3914 291.216 16.6697V16.6665Z" fill="#848487"/>
<path d="M14.5233 3.44021C14.5361 3.09604 14.2479 -0.866732 15.4556 0.419883C15.9472 3.48203 14.9598 6.73716 14.9598 9.67708C14.9598 12.2986 15.2183 13.8843 14.9895 16.6666H14.5233V10.2432C14.5233 8.60919 14.4979 6.96232 14.5233 5.33154C14.5318 4.70109 14.5022 4.07065 14.5233 3.44343V3.44021Z" fill="#8C8D90"/>
<path d="M97.8565 16.6665C97.882 17.921 97.8311 19.1915 97.8565 20.446H99.2549C99.2804 19.317 99.2295 18.1719 99.2549 17.0429H105.811C105.713 18.1622 105.874 19.3234 105.811 20.446H107.446C107.84 20.4009 107.73 17.58 107.684 17.0429H108.15C111.493 19.0757 110.341 22.9388 106.001 23.4309C103.781 23.6818 98.0769 23.6818 96.2674 22.6622C94.0257 21.3981 94.6444 17.4642 97.3819 16.6633H97.848L97.8565 16.6665Z" fill="#404040"/>
<path d="M125.482 16.6665C125.507 17.921 125.456 19.1915 125.482 20.446H126.88C126.982 19.4617 126.749 18.3906 126.88 17.4224C126.884 17.3806 127.291 17.3356 127.346 16.6665H133.431C133.33 17.9113 133.499 19.198 133.431 20.446L135.262 20.4074C135.444 20.0825 135.19 19.5389 135.3 19.3105C135.372 19.1626 136.004 18.7187 136.237 18.5547C138.979 18.9053 137.398 22.2987 135.762 22.8938C134.788 23.2476 126.155 23.2444 124.867 23.0063C121.562 22.3952 121.905 17.5833 125.003 16.6633H125.469L125.482 16.6665Z" fill="#404040"/>
<path d="M42.6106 16.6667C42.6403 17.7346 42.5386 18.8218 42.6106 19.8929C42.6615 20.6746 42.8861 20.5748 43.7845 20.4494C44.2252 20.3883 44.0091 17.3261 44.0218 16.67H50.5774C50.4757 17.9148 50.6452 19.2014 50.5774 20.4494L52.4081 20.4076C52.5903 20.0731 52.3487 19.5841 52.4504 19.314C52.4971 19.1949 53.0776 18.9376 52.9293 18.5581L54.3235 18.9376C55.0608 25.7567 47.5051 22.434 42.0174 23.013C38.712 22.4018 39.0553 17.5867 42.153 16.67H42.6191L42.6106 16.6667Z" fill="#404040"/>
<path d="M70.2355 16.6667C70.2651 17.7346 70.1634 18.8218 70.2355 19.8929C70.2863 20.6746 70.5109 20.5748 71.4093 20.4494C71.8076 20.3915 71.6848 17.2618 71.6466 16.67H78.2022C78.1005 17.9148 78.27 19.2014 78.2022 20.4494C80.0117 20.8 79.4608 19.7868 79.6049 19.6935C80.1007 19.3686 81.3551 18.7543 81.9441 18.9376C82.0924 20.295 82.2407 22.5434 80.2066 23.013C79.0667 23.2767 70.905 23.2478 69.638 23.013C66.3326 22.4018 66.6759 17.5867 69.7736 16.67H70.2397L70.2355 16.6667Z" fill="#404040"/>
<path d="M14.9896 16.6665C14.8879 17.9113 15.0574 19.198 14.9896 20.446H16.388C16.4135 19.317 16.3626 18.1719 16.388 17.0429H22.9437C22.8462 18.1622 23.0072 19.3234 22.9437 20.446L24.7574 20.3849C24.965 20.2562 24.7362 19.7769 24.8125 19.6869C25.0498 19.4038 25.4778 19.1883 25.749 18.931C28.1263 18.4549 27.1601 20.8899 26.6262 21.7165C25.0837 24.0967 22.664 23.0321 20.3841 23.061C17.6763 23.0964 12.8454 24.1546 12.2055 20.9864C11.7944 18.9471 12.2563 17.6926 14.515 16.6633H14.9811L14.9896 16.6665Z" fill="#404040"/>
<path d="M160.595 16.6666H161.061C160.96 17.9114 161.129 19.198 161.061 20.4461L162.875 20.3849C163.074 20.1759 162.854 19.7931 162.93 19.687C163.426 19.0083 163.735 18.7606 164.803 18.9311C164.951 20.2885 165.1 22.5368 163.066 23.0064C161.871 23.283 154.34 23.2477 152.895 23.0611C150.37 22.7395 149.738 20.5972 150.387 18.8056C150.637 18.1141 151.535 17.9983 151.696 17.7924C151.196 19.6001 152.501 19.2656 153.099 19.6805C153.158 19.7191 152.993 20.356 153.328 20.4461L154.501 20.4364C154.527 19.182 154.476 17.9114 154.501 16.657H160.587L160.595 16.6666Z" fill="#404040"/>
<path d="M134.842 0.419799L135.308 19.3137C135.198 19.5421 135.452 20.0857 135.27 20.4106L133.439 20.4492C133.503 19.2012 133.338 17.9145 133.439 16.6697C133.448 16.5732 133.914 16.0779 133.944 15.3928C134.143 10.4168 133.723 5.399 133.91 0.423016C134.49 0.249323 133.969 -0.0594651 134.846 0.423016L134.842 0.419799Z" fill="#CCCCCC"/>
<path d="M162.934 19.6901L162.468 0.419841C163.959 0.107836 163.349 1.52633 163.4 2.30795C163.459 3.18285 163.383 4.07704 163.4 4.95194C163.43 6.71139 163.379 8.4837 163.4 10.2431C163.43 12.6877 163.4 15.1451 163.366 17.5929L164.748 17.831C164.955 17.9757 164.769 18.6158 164.803 18.9342C163.735 18.7638 163.425 19.0114 162.93 19.6901H162.934Z" fill="#98989B"/>
<path d="M80.533 4.95202C80.5753 6.70825 80.516 8.48378 80.533 10.2432C80.5584 12.6878 80.5372 15.1452 80.499 17.593L81.8805 17.831C82.0882 17.9758 81.9017 18.6159 81.9356 18.9343C81.3423 18.751 80.088 19.3653 79.5964 19.6902V0.419922C81.1601 1.18546 80.499 3.58821 80.533 4.95524V4.95202Z" fill="#8C8D90"/>
<path d="M52.4461 19.3106L51.98 0.41987C52.5521 -0.188056 52.8275 0.41987 52.9165 0.976331C53.086 2.05065 52.8911 3.43377 52.9165 4.57564C52.9546 6.46053 52.8953 8.35828 52.9165 10.2432C52.9419 12.6877 52.9207 15.1452 52.8826 17.593L54.2641 17.831C54.4717 17.9757 54.2853 18.6158 54.3192 18.9343L52.925 18.5547C53.0733 18.9343 52.4927 19.1916 52.4461 19.3106Z" fill="#939396"/>
<path d="M135.779 1.55214C135.983 2.6329 135.741 4.15432 135.779 5.33157C135.83 6.96236 135.762 8.61244 135.779 10.2432C135.809 12.6878 135.779 15.1452 135.75 17.5962L137.186 17.8021C137.576 18.9279 136.457 18.41 136.25 18.558C136.017 18.722 135.385 19.1659 135.313 19.3139L134.847 0.419922C135.572 0.818773 135.635 0.767308 135.784 1.55214H135.779Z" fill="#848487"/>
<path d="M126.884 17.4227L126.418 0.420069C127.643 0.333222 127.193 0.368604 127.338 0.986179C127.579 2.0412 127.838 3.51438 127.821 4.57262C127.795 6.17767 127.405 8.3617 127.354 10.2402C127.295 12.347 127.528 14.5921 127.354 16.6636C127.299 17.3326 126.893 17.3777 126.888 17.4195L126.884 17.4227Z" fill="#848487"/>
<path d="M50.5732 16.6667H50.1071C50.0689 14.5309 50.1579 12.379 50.1071 10.2433C50.0689 8.60605 49.6155 6.69543 49.6409 5.33162C49.6409 5.15149 50.0689 4.55965 50.1155 4.02892C50.213 2.87418 49.5096 1.00859 51.0436 0.416748C50.8698 5.39273 51.2809 10.4105 51.0817 15.3865C51.0563 16.0716 50.5859 16.567 50.5774 16.6635L50.5732 16.6667Z" fill="#9C9D9F"/>
<path d="M105.348 3.81988C105.357 3.46284 105.043 -0.895565 106.281 0.419999C106.094 5.51821 106.526 10.6647 106.319 15.7661C106.289 16.4544 105.827 16.9401 105.815 17.0431H105.348V10.2401C105.348 8.10752 105.289 5.94923 105.348 3.81666V3.81988Z" fill="#A0A0A2"/>
<path d="M107.687 17.0458C107.679 16.9364 107.213 16.4604 107.183 15.7688C106.971 10.6674 107.408 5.52091 107.221 0.422695C108.391 -0.828538 108.141 2.73539 108.153 3.06669C108.204 4.32114 108.137 5.59167 108.153 6.84612C108.17 7.97834 108.153 9.117 108.153 10.246V17.049H107.687V17.0458Z" fill="#939396"/>
<path d="M22.9478 17.0462H22.4817V10.2433C22.4817 8.48704 22.4224 6.70829 22.4817 4.95207C22.5283 3.5786 21.8418 1.18872 23.414 0.416748C23.2318 5.51818 23.664 10.6646 23.4521 15.7661C23.4225 16.4544 22.9606 16.9401 22.9478 17.043V17.0462Z" fill="#9C9D9F"/>
<path d="M133.906 0.41995C133.724 5.39593 134.139 10.4137 133.94 15.3897C133.915 16.0748 133.444 16.5702 133.436 16.6667H132.97V10.2433C132.97 8.23614 132.919 6.2065 132.97 4.19617C133 3.01891 132.94 1.83523 132.953 0.657974C133.076 0.198009 133.669 0.490714 133.906 0.41995Z" fill="#9C9D9F"/>
<path d="M160.595 4.19598C160.62 3.1699 160.442 1.9444 160.595 0.976226C160.679 0.422982 160.955 -0.18816 161.531 0.419765C161.353 5.39253 161.764 10.4135 161.569 15.3895C161.544 16.0779 161.074 16.57 161.065 16.6665H160.599V10.2431C160.599 8.23273 160.552 6.20632 160.599 4.19598H160.595Z" fill="#A0A0A2"/>
<path d="M78.1935 16.6671H77.7274V10.2436C77.7274 8.11107 77.6511 5.94956 77.7274 3.82021C77.757 2.93888 77.1977 0.655139 78.6639 0.610107C78.4774 5.52819 78.8927 10.4752 78.6978 15.3901C78.6724 16.0752 78.202 16.5706 78.1935 16.6671Z" fill="#9C9D9F"/>
<path d="M25.2908 9.48716C25.2527 9.73161 25.3205 9.99537 25.2908 10.243C25.2823 10.3042 24.8628 10.658 24.8035 11.1565C24.6128 12.6812 24.0577 18.3423 26.6977 17.8051L26.6892 18.5514C26.3502 18.5996 25.9816 18.7251 25.7612 18.9373C25.49 19.1947 25.062 19.4102 24.8247 19.6932C24.0492 19.3008 24.3585 18.2587 24.3501 17.6218C24.2611 11.8931 24.4263 6.15161 24.3628 0.426171C25.1806 0.336108 24.8035 1.28177 24.8247 1.74173C24.9518 4.25707 24.3373 7.12622 25.2908 9.49037V9.48716Z" fill="#8C8D90"/>
<path d="M153.103 19.6906C152.501 19.2756 151.2 19.6102 151.7 17.8025C153.247 15.8114 152.581 12.6238 152.636 10.2436C152.666 8.98915 152.628 7.72183 152.636 6.46417C152.645 5.2065 152.619 3.9424 152.636 2.68474C152.636 2.46279 152.268 0.092206 153.107 0.606852V19.6874L153.103 19.6906Z" fill="#848487"/>
<path d="M72.5746 4.57569C71.744 6.2901 72.1381 8.38085 72.1084 10.2432C72.0703 12.379 72.1339 14.5309 72.1084 16.6667H71.6423C71.5745 15.6084 70.6041 14.1578 71.5533 12.7007L71.1338 10.8093L71.6423 9.6739V0.419922H72.1042L72.5788 4.57569H72.5746Z" fill="#6E6E71"/>
<path d="M125.482 16.6667H125.016C124.961 14.5342 125.092 12.3759 125.016 10.2433C124.977 9.20437 124.549 7.72476 124.549 7.21977C124.537 5.67583 124.85 4.21231 125.016 2.68445C125.045 2.40783 124.626 0.114436 125.486 0.606567C125.566 5.95567 125.372 11.3209 125.486 16.6635L125.482 16.6667Z" fill="#848487"/>
<path d="M42.6103 16.6667H42.1441C42.106 14.5309 42.195 12.379 42.1441 10.2432C42.106 8.61888 42.4958 6.8144 41.678 5.33157L42.6103 0.419922C42.7374 5.82371 42.4535 11.2629 42.6145 16.6667H42.6103Z" fill="#848487"/>
<path d="M99.7295 4.57587C99.7507 6.46076 99.7295 8.35852 99.7295 10.2434V17.0464H99.2634C99.4032 11.5139 99.1575 5.95577 99.2676 0.423322C100.085 0.336475 99.7041 1.28214 99.7295 1.7421C99.7804 2.68455 99.7211 3.63986 99.7295 4.57909V4.57587Z" fill="#848487"/>
<path d="M180.728 17.0461C180.567 17.0557 180.385 17.0171 180.262 17.0461V10.2431C180.262 8.98545 180.253 7.72135 180.262 6.46368C180.266 5.7078 180.262 4.95191 180.262 4.19602V0.796143H180.728C180.821 6.20314 180.601 11.6391 180.728 17.0429V17.0461Z" fill="#848487"/>
<path d="M97.8566 16.6669H97.3905V10.2435C97.3905 8.35856 97.3693 6.4608 97.3905 4.57591C97.399 3.63669 97.3396 2.68137 97.3905 1.73893C97.4159 1.27896 97.0345 0.333301 97.8524 0.420148C97.9456 5.82715 97.7422 11.2599 97.8566 16.6669Z" fill="#848487"/>
<path d="M44.4832 5.33148C44.4959 6.96548 44.4832 8.60913 44.4832 10.2431V16.6666H44.017C44.1145 11.2596 43.9408 5.82682 44.0213 0.419823C44.8391 0.32976 44.462 1.27542 44.4832 1.73539C44.5425 2.92872 44.4747 4.13814 44.4832 5.33148Z" fill="#6E6E71"/>
<path d="M70.2355 16.6669H69.7694V10.2435C69.7694 8.35856 69.7482 6.4608 69.7694 4.57591C69.7779 3.63669 69.7186 2.68137 69.7694 1.73893C69.7948 1.27896 69.4134 0.333301 70.2313 0.420148C70.3584 5.82393 70.0745 11.2631 70.2355 16.6669Z" fill="#848487"/>
<path d="M16.8622 5.70814C16.875 7.2167 16.8622 8.7349 16.8622 10.2435V17.0464H16.3961C16.5317 11.6394 16.2902 6.20671 16.4003 0.799706C17.2182 0.709643 16.8411 1.65531 16.8622 2.11527C16.9216 3.30861 16.8538 4.51802 16.8622 5.71136V5.70814Z" fill="#6E6E71"/>
<path d="M154.976 4.57553V10.2431C154.976 12.3789 154.976 14.5307 154.976 16.6665H154.51C154.624 11.3849 154.421 6.08087 154.514 0.799316L154.976 4.57553Z" fill="#6E6E71"/>
<path d="M243.462 16.6665H243.928C243.826 17.9113 243.996 19.198 243.928 20.446H245.327C245.352 19.317 245.301 18.1719 245.327 17.0429H245.793C249.187 17.8792 248.738 22.7329 245.115 23.1093C243.403 23.2862 235.516 23.2572 234.372 22.6718C232.804 21.8709 233.169 20.0246 233.118 18.7283C232.936 17.9242 234.207 18.0915 234.559 17.7988C234.16 19.05 234.847 20.1919 236.432 20.4428C236.546 20.4621 236.792 20.4685 236.898 20.4428C238.36 20.1179 237.796 17.7602 237.834 16.6633H243.453L243.462 16.6665Z" fill="#404040"/>
<path d="M243.462 10.2434V16.6668H237.843C237.915 14.5375 237.843 12.376 237.843 10.2434H243.462Z" fill="#F6F6F6"/>
<path d="M235.504 1.55199C235.567 0.837923 235.05 0.220348 236.436 0.419774V20.4459C234.855 20.195 234.165 19.0532 234.567 17.8019C236.059 16.5507 235.457 12.1183 235.504 10.2431C235.533 8.98863 235.487 7.72131 235.504 6.46365C235.529 4.85538 235.364 3.13453 235.504 1.55199Z" fill="#848487"/>
<path d="M245.335 0.419986C245.233 5.95243 245.475 11.5138 245.335 17.0463C245.305 18.1753 245.36 19.3204 245.335 20.4494H243.937C244 19.2014 243.835 17.9147 243.937 16.6699C243.945 16.5734 244.411 16.0781 244.441 15.393C244.64 10.417 244.22 5.39597 244.407 0.423203C245.276 -0.0592778 244.763 0.246293 245.343 0.423203L245.335 0.419986Z" fill="#CCCCCC"/>
<path d="M236.906 20.4461V0.419968C237.487 -0.194391 237.758 0.426401 237.843 0.979646C238.258 3.59469 237.843 7.46097 237.843 10.2433C237.843 12.3758 237.915 14.5374 237.843 16.6667C237.805 17.7635 238.368 20.1213 236.906 20.4461Z" fill="#6E6E71"/>
<path d="M243.932 16.6667H243.466V10.2433C243.466 7.78262 242.995 3.54322 243.474 1.35919C243.627 0.661205 243.847 0.725536 244.402 0.416748C244.22 5.39273 244.635 10.4105 244.436 15.3865C244.411 16.0749 243.94 16.567 243.932 16.6635V16.6667Z" fill="#9C9D9F"/>
<path d="M245.335 0.419807C245.572 0.493787 246.17 0.197866 246.289 0.661047C246.149 3.84864 246.42 7.06517 246.272 10.2463C246.272 10.2946 245.814 10.6741 245.784 11.1598C245.67 13.1123 245.903 15.0969 245.801 17.0461H245.335C245.475 11.5136 245.233 5.95225 245.335 0.419807Z" fill="#939396"/>
<path d="M263.595 19.6901C262.993 19.2751 261.688 19.6193 262.192 17.802C263.57 16.6086 263.108 12.0058 263.129 10.2431C263.154 8.29389 263.184 6.32537 263.15 4.37293C263.133 3.41119 262.561 2.51377 262.663 1.55203C262.675 1.43302 263.002 0.950536 263.129 0.796143L263.595 19.6901Z" fill="#848487"/>
<path d="M0.00423764 114.157V280.796H0.936519L0.940756 281.359L0 281.552C0 284.318 0 287.1 0 289.863C0 291.121 0 292.385 0 293.643C3.26298 293.794 1.4408 290.77 1.38571 289.313C1.31367 287.425 1.47894 285.521 1.40266 283.633C2.90278 282.816 3.2757 284.505 4.19527 285.158C25.536 300.291 47.326 315.599 68.1201 330.675C75.3114 335.889 82.6425 341.267 89.4693 346.696C90.0711 347.176 90.9525 347.449 91.7068 347.735L91.2957 349.565C93.4612 349.565 94.8893 349.379 97.1479 349.585C98.0336 349.665 99.0464 349.112 98.7879 350.321C99.7244 350.321 100.661 350.321 101.597 350.321V349.565L104.581 349.556L104.873 350.318C105.81 350.318 106.746 350.318 107.683 350.318V349.562L113.005 349.553L113.302 350.315H125.006V349.559L129.392 349.549L129.689 350.312C130.002 350.312 130.312 350.312 130.625 350.312V349.556L133.138 349.549L133.435 350.312C135.456 350.312 137.499 350.312 139.52 350.312V349.556C140.927 349.704 142.902 349.337 144.203 349.556C144.474 349.601 144.665 349.684 144.669 349.932V350.308H152.161V349.553L153.776 349.546L154.034 350.308C155.437 350.308 156.848 350.308 158.246 350.308V349.553L162.632 349.543L162.929 350.305H168.078V349.549L171.527 349.54L171.819 350.302H183.524V349.546H184.693L184.931 350.305H192.423C208.645 350.302 224.892 350.312 241.113 350.305C248.131 350.305 255.165 350.305 262.183 350.305C269.2 350.305 276.235 350.308 283.252 350.305C290.423 350.302 297.618 350.267 304.788 350.305C305.725 350.312 306.661 350.292 307.598 350.305C307.754 350.305 307.911 350.305 308.064 350.305C308.433 350.312 308.725 350.341 308.975 350.379C309.369 350.344 309.767 350.283 310.221 350.273C310.416 350.27 310.606 350.283 310.801 350.302C310.924 350.286 311.051 350.276 311.191 350.276C311.246 350.276 311.297 350.276 311.348 350.28C311.602 349.453 310.645 348.948 312.746 349.167C312.772 349.543 312.734 349.923 312.746 350.302H315.086L315.552 349.546C315.552 349.421 315.552 349.295 315.552 349.17C315.556 348.288 315.552 347.404 315.552 346.526H314.615L314.607 343.364L315.552 343.126C315.552 342.621 315.552 342.119 315.552 341.614C315.552 341.489 315.552 341.363 315.552 341.238V340.106L0.00423764 114.157Z" fill="#FFFEDA"/>
<path d="M0.00488281 56.7224L4.44169 55.5869C6.57323 57.2273 4.19591 57.8964 4.20439 58.0476C4.23405 58.6426 5.09005 58.9257 5.12395 59.5304C5.15362 60.0257 4.43322 60.7495 4.74257 61.1966C4.78918 61.2609 5.87402 61.6244 6.34016 61.991C10.0693 64.902 12.9805 67.6489 17.1631 70.2672C18.3242 70.9941 20.8075 71.7243 21.7864 72.5799C22.4729 73.1814 22.511 74.0531 23.1466 74.5034C23.8331 74.9923 25.1977 74.9505 25.6511 75.3172C26.0579 75.6452 26.1469 76.7968 26.8927 77.5269C28.3208 78.9293 32.016 80.0487 34.1772 81.8467C36.474 83.7573 37.2326 84.4103 39.9023 86.1891C41.8219 87.466 42.8262 89.605 45.8901 89.0196C46.7588 89.4731 45.7714 90.2097 45.9536 90.8434C46.2969 92.0496 48.9369 93.1014 49.8819 93.7351C53.6026 96.2375 57.1198 99.29 60.904 101.847C62.2897 102.783 65.9553 104.012 67.3156 105.173C67.7944 105.585 67.6673 106.514 68.1377 106.968C68.6504 107.46 69.7776 107.376 70.2777 107.885C70.8074 108.422 70.5404 109.419 71.1634 109.818C71.9939 110.348 74.5323 110.085 75.651 110.728C76.6681 111.313 76.613 112.931 77.6936 113.99C79.0538 115.318 81.4693 115.707 82.8423 116.637C84.3721 117.673 86.4401 119.609 88.0334 120.767C90.1014 122.269 89.131 121.674 90.6184 123.208C93.0042 125.669 98.8013 128.136 101.581 130.23C104.666 132.552 106.348 134.637 110.065 136.994C110.603 137.335 110.917 138.213 111.035 138.271C112.362 138.908 112.264 137.136 113.773 137.583C113.137 139.818 114.286 139.506 115.112 140.458C117.248 142.922 117.239 141.79 118.697 142.871C119.871 143.743 122.108 146.451 123.808 147.419C124.727 147.94 126.024 147.757 126.88 148.355C127.511 148.796 127.511 149.558 127.96 149.941C128.566 150.459 130.359 151.041 131.215 151.552C131.779 151.89 131.952 152.668 132.503 152.91C133.461 153.328 134.499 152.411 135.325 152.871C136.275 153.421 135.186 154.248 135.533 154.955C136.109 156.123 144.979 161.668 146.788 162.897C147.31 163.251 147.521 164.007 147.962 164.216C148.661 164.547 149.763 164.283 150.327 164.576C150.984 164.914 150.551 166.223 151.187 166.905C151.708 167.465 153.217 167.51 154.022 168.018C155.069 168.684 156.234 170.713 157.289 171.427C160.082 173.315 164.803 175.525 167.591 177.474C168.765 178.295 169.888 180.643 171.121 181.428C171.964 181.965 173.38 182.061 174.346 182.602C175.536 183.267 175.867 184.367 176.998 184.995C177.715 185.394 178.927 185.445 179.206 185.67C179.668 186.037 180.177 187.893 181.673 188.398C182.609 188.716 183.885 188.443 184.508 188.755C185.351 189.183 184.643 190.591 185.041 191.164C185.139 191.302 187.207 192.045 187.783 192.537C189.75 194.213 189.635 193.982 191.733 195.394C193.436 196.542 195.208 198.617 196.865 199.562C197.581 199.971 198.581 199.833 199.225 200.302C199.797 200.72 199.996 201.984 200.649 202.554C203.891 205.384 208.713 207.552 212.544 210.714C216.493 213.976 219.896 216.343 224.536 218.797C225.765 219.447 228.007 222.306 229.177 222.985C230.533 223.77 232.516 223.516 233.185 223.905C233.732 224.22 233.851 226.263 234.83 227.115C235.597 227.781 237.953 228.704 239.088 229.534C241.635 231.393 244.089 233.854 246.398 235.726C247.14 236.327 249.92 236.794 250.818 237.45C251.717 238.106 253.14 240.165 254.463 241.104C256.611 242.625 260.162 243.96 262.056 245.385C262.836 245.971 263.065 247.486 263.798 247.946C264.442 248.354 265.468 248.222 266.201 248.65C267.603 249.464 271.515 252.41 273.197 253.584C275.193 254.974 273.998 255.807 278.066 255.131C278.816 255.9 277.871 257.158 278.316 257.737C278.554 258.042 279.511 258.274 279.986 258.682C281.575 260.053 283.584 262.352 285.363 263.414C286.194 263.909 287.542 263.967 288.211 264.514C289.016 265.173 288.673 266.08 289.36 266.611C290.046 267.142 293.212 269.152 294.254 269.84C295.212 270.474 298.102 271.134 298.754 271.88C299.271 272.472 299.064 273.427 299.237 273.565C299.411 273.704 300.572 273.536 301.322 273.958C302.072 274.379 303.166 276.492 303.873 276.814C304.581 277.136 305.484 276.927 306.2 277.203C307.115 277.557 307.831 279.4 308.772 280.04C309.272 280.378 312.849 281.854 313.226 281.545C314.027 279.484 312.255 277.367 312.247 275.695C312.239 273.877 313.035 271.175 313.222 269.262C313.349 267.952 313.145 266.611 313.23 265.299C313.806 264.684 314.078 265.305 314.167 265.858C314.387 267.261 314.086 268.66 314.391 270.236C314.514 270.867 314.459 271.561 315.569 271.346C315.569 272.98 315.569 274.623 315.569 276.257C313.989 276.068 314.133 278.76 314.137 279.468C314.137 280.262 313.908 282.485 315.569 282.305C315.569 282.681 315.569 283.06 315.569 283.437C315.569 290.108 315.574 296.795 315.569 303.463C315.565 311.897 315.578 320.347 315.569 328.78C315.565 332.553 315.569 336.342 315.569 340.115L0.00488281 114.157V104.71C1.63637 104.755 1.29736 104.945 1.41178 103.784C1.47958 103.089 1.47958 102.175 1.41178 101.477C1.3016 100.316 1.64061 100.506 0.00488281 100.551V97.9069L1.42025 97.685L1.41178 95.2597H0.00488281V92.2394C2.63646 92.4806 2.64917 89.7369 0.00488281 89.9717V56.7191V56.7224Z" fill="#FFFEDA"/>
<path d="M315.561 343.142C315.561 343.898 315.565 344.654 315.561 345.41C315.561 345.661 315.561 345.915 315.561 346.166C315.561 346.291 315.561 346.417 315.561 346.542H314.624L314.616 343.38L315.561 343.142Z" fill="#FFFEDA"/>
<path d="M315.561 276.261C315.561 278.271 315.561 280.297 315.561 282.308C313.9 282.491 314.129 280.268 314.129 279.471C314.129 278.763 313.98 276.071 315.561 276.261Z" fill="#F6F6F6"/>
<path d="M210.222 0.796186C209.446 1.1886 209.756 2.23076 209.747 2.86764C209.688 7.46407 209.853 12.0734 209.756 16.6666C209.73 17.921 209.781 19.1916 209.756 20.446L208.582 20.4557C208.243 20.3656 208.408 19.7287 208.353 19.6901L207.887 0.796186C208.005 0.751154 208.2 0.0177836 209.052 0.0177836C209.688 0.00813396 210.056 0.339437 210.226 0.796186H210.222Z" fill="#C2C2C2"/>
<path d="M217.714 0.420071L218.18 16.6668C218.18 16.7922 218.18 16.9177 218.18 17.0431C218.15 18.1721 218.206 19.3172 218.18 20.4462H216.311C216.375 19.1982 216.21 17.9116 216.311 16.6668C216.32 16.5703 216.786 16.075 216.816 15.3898C217.015 10.4139 216.595 5.39284 216.782 0.420071C216.845 0.410422 216.96 0.053386 217.375 0.095201L217.718 0.420071H217.714Z" fill="#D2D2D2"/>
<path d="M216.778 0.419922C216.596 5.39591 217.011 10.4137 216.812 15.3897C216.786 16.0748 216.316 16.5702 216.307 16.6667H215.841V0.796257C215.956 0.780174 216.329 0.487469 216.778 0.419922Z" fill="#A0A0A2"/>
<path d="M218.65 3.06392C218.79 5.36374 218.714 7.9241 218.65 10.2432C218.595 12.2278 218.226 14.4826 218.184 16.6667L217.718 0.419922C219.087 0.818773 218.595 2.11825 218.654 3.06392H218.65Z" fill="#848487"/>
<path d="M208.349 19.6901C207.747 19.2751 206.446 19.6097 206.946 17.802C208.438 16.5507 207.836 12.1184 207.883 10.2431C207.908 9.23955 207.891 8.22313 207.883 7.21957C207.866 5.72066 207.984 4.17994 207.883 2.68425C207.836 2.03129 207.637 1.41693 207.417 0.796143C207.535 0.812225 207.815 0.821875 207.883 0.796143L208.349 19.6901Z" fill="#848487"/>
<path d="M188.216 17.0465H188.682C188.631 17.5837 188.525 20.4046 188.919 20.4496H190.555C190.491 19.327 190.656 18.1659 190.555 17.0465H191.021C193.432 18.0275 193.525 21.6687 191.288 22.7398C190.161 23.2802 182.639 23.2609 180.948 23.1C176.854 22.714 176.613 17.8828 180.253 17.0465C180.376 17.0176 180.558 17.0562 180.719 17.0465C180.74 17.9889 180.656 18.9475 180.719 19.8931C180.77 20.6748 180.99 20.5783 181.893 20.4496C182.329 20.3885 182.122 17.6609 182.13 17.0465C182.13 16.9211 182.13 16.7956 182.13 16.6702H182.596C184.321 17.3714 186.355 16.9468 188.216 17.0465Z" fill="#404040"/>
<path d="M190.088 0.420079C190.279 5.52151 189.843 10.668 190.055 15.7694C190.084 16.4577 190.546 16.9434 190.559 17.0464C190.656 18.1657 190.495 19.3269 190.559 20.4495H188.923C188.529 20.4044 188.639 17.5835 188.686 17.0464C189.182 11.6683 189.682 5.7917 188.686 0.420079V0.0405273C188.741 0.0791258 189.538 0.21422 190.088 0.416862V0.420079Z" fill="#D2D2D2"/>
<path d="M188.686 17.0462H188.22V10.2432C188.22 7.48022 188.152 4.69148 188.22 1.93169C188.233 1.43313 187.987 0.680461 188.686 0.419922C189.682 5.79154 189.182 11.6682 188.686 17.0462Z" fill="#A0A0A2"/>
<path d="M182.601 2.30794C182.715 4.93585 182.601 7.61201 182.601 10.2431V16.6666H182.135C182.071 14.0001 182.118 11.5458 182.152 8.93722C182.19 6.22568 182.08 3.50449 182.139 0.799384C182.961 0.722187 182.584 1.86406 182.601 2.30794Z" fill="#848487"/>
<path d="M182.13 17.0464C182.122 17.6608 182.334 20.3884 181.893 20.4495C180.995 20.5782 180.77 20.6747 180.719 19.8931C180.66 18.9506 180.744 17.9889 180.719 17.0464C181.185 17.0207 181.66 17.0625 182.122 17.0464H182.13Z" fill="#C2C2C2"/>
<path d="M180.728 0.797196H180.258L180.491 0.426025L180.728 0.797196Z" fill="#C2C2C2"/>
<path d="M311.353 350.299C311.54 350.299 311.722 350.308 311.904 350.321H312.752C312.739 349.945 312.777 349.562 312.752 349.186C310.65 348.967 311.612 349.472 311.353 350.299Z" fill="#FFFEDA"/>
<path d="M191.025 0.796299V17.043H190.559C190.551 16.9401 190.084 16.4544 190.055 15.7661C189.843 10.6646 190.284 5.51818 190.089 0.416748C190.402 0.532543 190.805 0.728752 191.025 0.793083V0.796299Z" fill="#939396"/>
<path d="M315.561 350.321H315.095L315.561 349.565C315.561 349.816 315.561 350.07 315.561 350.321Z" fill="#FFFEDA"/>
<path d="M265.468 0.796042C264.693 1.18846 265.002 2.23062 264.994 2.86749C264.934 7.46392 265.1 12.0732 265.002 16.6664C264.977 17.9209 265.028 19.1914 265.002 20.4459L263.828 20.4555C263.489 20.3655 263.655 19.7318 263.599 19.69L263.133 0.796042C263.917 -0.146403 265.142 -0.377994 265.472 0.796042H265.468Z" fill="#C2C2C2"/>
<path d="M265.468 4.57557C265.506 6.45725 265.468 8.35822 265.468 10.2431V16.6665H265.002C265.099 12.0765 264.934 7.46724 264.993 2.86759C265.002 2.2275 264.692 1.18856 265.468 0.796143C265.714 1.66461 265.447 3.51412 265.468 4.57557Z" fill="#6E6E71"/>
<path d="M291.216 16.6667C291.246 17.7346 291.144 18.8218 291.216 19.8929C291.267 20.6746 291.491 20.5748 292.39 20.4494C292.801 20.3915 292.653 17.2715 292.627 16.67H299.183C299.149 17.2522 299.018 20.4044 299.42 20.4494H301.056C300.687 19.1435 300.624 17.9952 300.59 16.67H301.056C304.327 18.3329 304.293 22.7814 299.916 23.1159C298.005 23.2639 290.559 23.3378 289.368 22.5144C287.453 21.186 288.14 17.4033 290.758 16.67H291.225L291.216 16.6667Z" fill="#404040"/>
<path d="M271.087 16.6665H271.553C271.452 17.9113 271.621 19.198 271.553 20.446H273.422C272.969 19.2559 273.803 17.8534 273.892 17.0429C276.664 18.471 276.27 22.7426 272.744 23.1093C271.032 23.2862 263.146 23.2572 262.002 22.6718C260.429 21.8709 260.798 20.0246 260.747 18.7283C260.565 17.9371 261.832 18.1043 262.188 17.7988C261.688 19.6161 262.993 19.2719 263.591 19.6869C263.65 19.7255 263.485 20.3623 263.82 20.4524L264.993 20.4428C265.019 19.1883 264.968 17.9178 264.993 16.6633H271.079L271.087 16.6665Z" fill="#404040"/>
<path d="M215.841 16.6665H216.307C216.205 17.9113 216.375 19.198 216.307 20.446H218.176C218.205 19.317 218.146 18.1751 218.176 17.0429C221.625 17.9435 221.07 22.7362 217.498 23.1093C215.786 23.2862 207.899 23.2572 206.755 22.6718C205.187 21.8709 205.552 20.0246 205.501 18.7283C205.319 17.9242 206.59 18.0915 206.942 17.7988C206.442 19.6065 207.747 19.2719 208.344 19.6869C208.404 19.7255 208.238 20.3623 208.573 20.4524L209.747 20.4428C209.772 19.1883 209.722 17.9178 209.747 16.6633H215.832L215.841 16.6665Z" fill="#404040"/>
<path d="M273.892 3.81984C273.934 5.95241 273.922 8.11071 273.892 10.2433C273.862 12.3758 274.066 14.6049 273.892 16.6667C272.472 16.8758 272.989 16.0877 272.956 15.3608C272.718 10.4942 272.748 5.13541 273.426 0.416748C274.159 1.48142 273.871 2.67797 273.892 3.81663V3.81984Z" fill="#848487"/>
<path d="M271.087 10.2434H265.468V16.6668H271.087V10.2434Z" fill="#F6F6F6"/>
<path d="M105.349 10.2434H99.7295V17.0464H105.349V10.2434Z" fill="#F6F6F6"/>
<path d="M132.97 10.2434V16.6668H127.351C127.524 14.5922 127.291 12.3502 127.351 10.2434H132.97Z" fill="#F6F6F6"/>
<path d="M50.1023 10.2434C50.1531 12.3792 50.0641 14.5311 50.1023 16.6668H44.4832V10.2434H50.1023Z" fill="#F6F6F6"/>
<path d="M77.7276 10.2434V16.6668H72.1085C72.1339 14.5311 72.0703 12.3792 72.1085 10.2434H77.7276Z" fill="#F6F6F6"/>
<path d="M22.4817 10.2434H16.8625V17.0464H22.4817V10.2434Z" fill="#F6F6F6"/>
<path d="M160.595 10.2434V16.6668H154.976C154.976 14.5311 154.976 12.3792 154.976 10.2434H160.595Z" fill="#F6F6F6"/>
<path d="M0.00488281 92.2391V89.9714C2.64917 89.7334 2.63646 92.4803 0.00488281 92.2391Z" fill="#F0F0F0"/>
<path d="M0.00488281 95.263L1.41178 95.2598L1.42026 97.685L0.00488281 97.907V97.5306V95.263Z" fill="#F0F0F0"/>
<path d="M0.00488281 293.643C3.26787 293.794 1.44568 290.77 1.39059 289.313C1.31855 287.425 1.48382 285.521 1.40754 283.633C2.90767 282.816 3.28058 284.505 4.20015 285.158C25.5409 300.291 47.3309 315.599 68.125 330.675C75.3163 335.889 82.6474 341.267 89.4742 346.696C90.076 347.176 90.9574 347.449 91.7117 347.735L91.3006 349.566C88.5801 349.569 85.8086 349.479 83.0881 349.566C82.1855 349.594 81.2108 349.176 81.4693 350.321C80.6896 350.321 79.9099 350.321 79.1301 350.321V349.566L73.8077 349.556L73.511 350.318C72.2652 350.318 71.0108 350.318 69.7649 350.318V349.562L65.379 349.553L65.0824 350.315C64.3026 350.315 63.5229 350.315 62.7432 350.315V349.559L58.8233 349.549L58.5267 350.312C56.9715 350.312 55.4036 350.312 53.8441 350.312V349.556L49.9243 349.546L49.6277 350.309C48.3818 350.309 47.1275 350.309 45.8816 350.309L45.5892 349.546L42.6017 349.556C42.5805 349.807 42.6228 350.061 42.6017 350.312H0.00488281V293.633V293.643Z" fill="#FFFEDA"/>
<path d="M91.3049 349.565C93.4703 349.565 94.8984 349.379 97.1571 349.585C98.0428 349.665 99.0556 349.112 98.7971 350.321C93.0381 350.321 87.2495 350.321 81.4736 350.321C81.2108 349.176 82.1897 349.594 83.0924 349.565C85.8172 349.478 88.5843 349.569 91.3049 349.565Z" fill="#F6F6F6"/>
<path d="M107.688 350.322V349.566L113.01 349.556L113.307 350.318C111.438 350.318 109.557 350.318 107.688 350.318V350.322Z" fill="#F6F6F6"/>
<path d="M144.208 349.565L144.674 349.942V350.318C142.962 350.318 141.237 350.318 139.525 350.318V349.562C140.932 349.71 142.907 349.343 144.208 349.562V349.565Z" fill="#F6F6F6"/>
<path d="M125.011 350.321L125.007 349.565L129.397 349.559L129.694 350.321H125.011Z" fill="#F6F6F6"/>
<path d="M158.251 350.321V349.565L162.642 349.559L162.934 350.321H158.251Z" fill="#FFFEDA"/>
<path d="M168.087 350.321L168.083 349.565L171.536 349.559L171.829 350.321H168.087Z" fill="#FFFEDA"/>
<path d="M101.602 350.322V349.566L104.586 349.556L104.878 350.318C103.789 350.318 102.691 350.318 101.602 350.318V350.322Z" fill="#F6F6F6"/>
<path d="M130.63 350.321V349.565L133.143 349.559L133.44 350.321C132.503 350.321 131.567 350.321 130.63 350.321Z" fill="#F6F6F6"/>
<path d="M152.167 350.321V349.565L153.781 349.562L154.04 350.321H152.167Z" fill="#FFFEDA"/>
<path d="M183.533 350.321L183.537 349.565L184.703 349.562L184.94 350.321H183.533Z" fill="#FFFEDA"/>
<path d="M0.00423764 280.796H0.936519L0.940756 281.359L0 281.552C0 281.301 0 281.047 0 280.796H0.00423764Z" fill="#F6F6F6"/>
<path d="M144.674 349.946L144.208 349.568C144.479 349.614 144.67 349.697 144.674 349.946Z" fill="#FFFEDA"/>
<path d="M0.00488281 100.554C1.63637 100.509 1.29736 100.319 1.41178 101.48C1.47958 102.175 1.47958 103.089 1.41178 103.787C1.3016 104.948 1.64061 104.758 0.00488281 104.713V100.557V100.554Z" fill="#F0F0F0"/>
<path d="M215.841 10.2434H210.222V16.6668H215.841V10.2434Z" fill="#F6F6F6"/>
<path d="M188.216 10.2434V17.0464C186.355 16.9435 184.321 17.3713 182.596 16.67V10.2466H188.216V10.2434Z" fill="#F6F6F6"/>
<path d="M73.5112 350.321L73.8079 349.559L79.1346 349.568V350.324C77.2615 350.324 75.38 350.324 73.5112 350.324V350.321Z" fill="#F6F6F6"/>
<path d="M65.0867 350.321L65.3833 349.559L69.7735 349.568V350.324C68.214 350.324 66.6461 350.324 65.0867 350.324V350.321Z" fill="#F6F6F6"/>
<path d="M49.6365 350.321L49.9331 349.559L53.8572 349.568V350.324C52.4503 350.324 51.0434 350.324 49.6407 350.324L49.6365 350.321Z" fill="#F6F6F6"/>
<path d="M58.531 350.321L58.8276 349.559L62.7517 349.568V350.324C61.3448 350.324 59.9379 350.324 58.5352 350.324L58.531 350.321Z" fill="#F6F6F6"/>
<path d="M42.6104 350.322C42.6273 350.071 42.585 349.817 42.6104 349.566L45.5979 349.556L45.8903 350.318H42.6146L42.6104 350.322Z" fill="#F6F6F6"/>
<rect y="42" width="314" height="309" fill="#FFFEDA"/>
</svg>
