<svg width="115" height="105" viewBox="0 0 115 105" fill="none" xmlns="http://www.w3.org/2000/svg">
<g clip-path="url(#clip0_10_89)">
<path d="M115 3.84817V4.67277L113.483 11.2696L112.12 9.89529L97.4132 24.3424C97.307 24.7052 97.6408 24.8014 97.8987 24.9719C99.2398 25.8514 100.687 26.3764 102.11 27.4787C115.188 37.5746 111.046 56.5213 94.831 61.3041C81.565 65.2154 66.7607 57.9699 65.2344 45.0785C58.5954 46.4281 51.5042 46.78 44.9107 45.0785C42.4377 59.5531 24.9511 66.8729 10.9174 59.5147C6.08681 56.9831 2.11187 52.4945 0.755541 47.5551C0.424802 46.3567 0.452111 45.0978 0 43.9791V40.9555L0.755541 37.3795C2.75515 30.2906 9.47309 24.9251 17.1347 23.0835C17.9449 23.1577 24.1894 29.5484 25.4821 30.6507C30.2368 34.705 35.5499 38.0639 41.7216 40.1281C44.0398 27.803 61.5265 25.8459 67.2007 37.3877C67.5284 38.0556 67.6528 38.8033 67.938 39.4767C68.0533 39.7488 67.7802 39.9825 68.384 39.8285C69.9467 39.4355 73.0296 37.9264 74.5406 37.1541C81.1584 33.7814 88.635 26.1071 94.0694 21.0357C98.1748 17.2041 102.784 13.037 106.659 9.07618C107.311 8.41099 107.791 7.57814 108.622 7.01191L107.111 6.05262L115 3.85092V3.84817ZM18.5092 29.6831L15.4628 27.0526C0.898153 32.528 -0.552243 50.2378 13.6483 57.0408C25.1817 62.5657 39.5521 56.1503 41.2392 44.4271L37.6344 43.1599C36.712 53.7067 23.7737 59.2893 13.9851 53.4373C3.53496 47.1868 6.51161 32.473 18.5062 29.6831H18.5092ZM68.5722 43.9818C70.414 56.1338 84.7844 62.8571 96.8003 56.766C110.491 49.8255 108.752 32.4758 94.5094 27.2175L91.6359 29.6831C101.246 31.9975 105.703 42.0605 100.256 49.7266C94.4092 57.9534 80.1237 57.7308 74.7015 49.284C73.3603 47.1978 72.896 45.3809 72.535 42.9978L68.5722 43.9818ZM64.2908 40.9225C63.5656 33.0778 51.9017 29.969 46.971 36.9149C46.4218 37.6901 44.7832 40.6669 46.0303 41.1754C46.9801 41.563 51.3889 42.0055 52.633 42.066C56.5078 42.2529 60.5373 41.7691 64.2908 40.9225Z" fill="white"/>
<path d="M59.7757 0C61.7905 0.456283 64.0541 0.560733 66.1569 0.953796C76.167 2.82016 85.7766 7.49843 92.8435 14.1558L89.6636 17.0364C78.0331 6.32199 60.8043 1.81414 44.5466 5.03285C35.4103 6.84149 27.1024 11.1459 20.4815 17.0364L17.3016 14.1558C23.4946 8.46872 31.3929 4.13953 39.895 1.91859C42.9353 1.12421 47.2562 0.211649 50.3694 0H59.7757Z" fill="white"/>
<path d="M102.863 105L102.86 95.9266L104.204 95.9238L104.38 105H102.863Z" fill="white"/>
<path d="M110.449 86.034H103.773V83.0077H106.201V78.1975C106.201 78.126 105.503 76.9744 105.39 76.9496C101.51 76.0618 102.702 83.5217 102.213 85.5832C101.898 86.4491 98.9 85.8746 98.0079 86.034C97.9442 82.0209 99.519 77.8429 98.0079 73.9425L101.749 73.9288L102.259 75.0393C104.107 73.4808 107.939 73.0272 109.487 75.2234C109.787 75.6522 110.449 77.2492 110.449 77.6505V86.034Z" fill="white"/>
<path d="M35.8047 73.9398H40.0528V81.4987C40.0528 82.8455 42.2101 83.8571 42.9444 81.922C43.5634 80.292 43.6636 76.5565 40.9539 76.8094L40.9964 73.97C43.527 73.1756 46.6159 74.124 47.1985 76.6747C47.5839 78.3624 47.5657 81.7021 46.8769 83.2853C45.384 86.7102 39.8646 87.2764 37.3279 84.5168C36.9214 84.077 35.8017 82.1996 35.8017 81.7763V73.9425L35.8047 73.9398Z" fill="white"/>
<path d="M4.85489 71.7408V73.9398H11.5304C11.679 78.0601 9.09381 81.889 8.79948 86.034H4.55146L6.9789 76.9634H0.606873V71.7408H4.85489Z" fill="white"/>
<path d="M94.9736 73.9398C94.8553 74.6957 95.1799 75.8281 94.9251 76.5071C94.7551 76.9524 93.4565 77.3619 93.4565 77.6505V86.034H89.2084V77.6505C89.2084 77.5653 89.6241 77.2602 89.5119 76.9633H83.7467V73.9398H94.9736Z" fill="white"/>
<path d="M71.9129 86.034H67.6649V78.2003C67.6649 75.6385 62.3549 77.3757 61.8997 76.9634V73.937C64.3302 73.8106 69.9072 73.0602 71.2696 75.4846C71.4274 75.7677 71.9129 77.4334 71.9129 77.6505V86.034Z" fill="white"/>
<path d="M61.5963 52.5027L55.6673 62.1094L54.9269 62.3953L49.1617 52.5C53.2641 53.2586 57.4484 52.9288 61.5993 52.5L61.5963 52.5027Z" fill="white"/>
<path d="M80.409 73.9398H76.1609V86.034H80.409V73.9398Z" fill="white"/>
<path d="M80.1056 101.702H78.285V94.4175C78.285 93.6342 75.369 93.2274 74.6438 93.4555V100.465C74.6438 101.52 72.2164 101.93 71.3061 101.702V100.324L73.1267 99.9122V93.7276H71.9099V92.3505C73.9641 92.3643 77.3261 91.4874 79.0527 92.892C79.4168 93.1889 80.1056 94.6264 80.1056 94.9618V101.696V101.702Z" fill="white"/>
<path d="M31.5567 73.9398V79.5746C31.5567 79.7313 29.5905 81.9825 29.4358 82.0512C28.8077 82.3288 27.9854 82.1501 27.3087 82.1859V73.9398H31.5567Z" fill="white"/>
<path d="M11.2299 100.052C14.3401 100.874 16.0423 100.239 16.1061 97.1635C16.1698 94.0877 14.5343 92.8728 11.2299 93.7304L11.2451 92.3698C14.4706 91.6743 17.1286 92.2323 17.5656 95.5472C18.045 99.1673 16.9951 102.257 12.2737 101.713C10.9842 101.564 11.2026 101.135 11.2299 100.052Z" fill="white"/>
<path d="M47.0317 101.702H45.2111V94.4175C45.2111 94.3048 44.0034 93.4555 43.8457 93.4555H39.4459L39.4854 92.389C41.136 91.952 44.6406 91.8008 45.9818 92.8948C46.264 93.1257 47.0317 94.4643 47.0317 94.6924V101.702Z" fill="white"/>
<path d="M110.449 92.356C110.989 92.8508 108.067 100.377 107.979 101.666L106.501 101.702L108.625 93.4555H102.86V92.356H110.445H110.449Z" fill="white"/>
<path d="M8.19263 101.702H6.67547V94.6924C6.67547 94.4175 5.61347 93.4555 5.31004 93.4555H0.606873L0.628113 92.3753C2.11492 91.8173 8.19263 91.8887 8.19263 93.8678V101.702Z" fill="white"/>
<path d="M58.2586 101.702H56.7415V95.2421C56.7415 94.7749 55.6006 93.4555 55.0726 93.4555H50.6729L50.7123 92.389C52.5207 91.6661 58.2586 91.974 58.2586 94.4175V101.702Z" fill="white"/>
<path d="M36.4116 92.356C37.0185 93.5242 34.8945 93.8843 34.8945 94.6924V101.702H33.3773V94.1427C33.3773 94.0272 34.0176 93.7414 33.9842 93.4555H28.8259V92.356H36.4116Z" fill="white"/>
<path d="M99.2216 101.702H97.7045V95.2421C97.7045 93.2988 94.3607 93.2988 92.8466 93.4582V92.0811C94.5913 91.8255 99.2216 92.2378 99.2216 94.4203V101.704V101.702Z" fill="white"/>
<path d="M18.8127 72.5654L17.2652 78.0353L13.9578 78.0601L14.8681 72.5627L18.8127 72.5654Z" fill="white"/>
<path d="M24.5778 94.6924C24.2107 93.1339 21.0641 93.461 19.7199 93.4583V92.0812C21.2128 92.0427 24.2805 91.9685 25.4032 92.9827C25.476 93.0459 26.0919 94.0795 26.0919 94.1454V101.704H24.5748V94.6952L24.5778 94.6924Z" fill="white"/>
<path d="M23.971 72.5654C24.1834 72.7606 22.7178 77.4169 22.3112 77.7934C21.7074 78.3487 19.987 77.9501 19.1191 78.0601L20.0264 72.5627H23.974L23.971 72.5654Z" fill="white"/>
<path d="M2.42745 95.6544H0.606873V101.702H2.42745V95.6544Z" fill="white"/>
<path d="M85.2639 92.356V97.1662C85.2639 97.5538 84.0987 98.711 83.4433 98.4031V92.356H85.2639Z" fill="white"/>
<path d="M40.9631 95.6544H39.4459V101.702H40.9631V95.6544Z" fill="white"/>
<path d="M52.19 95.6544H50.6729V101.702H52.19V95.6544Z" fill="white"/>
<path d="M90.1187 92.356V97.4411C90.1187 97.6088 89.1265 98.8099 88.6016 98.4031V92.356H90.1187Z" fill="white"/>
<path d="M52.1263 9.15039C64.5032 8.3945 77.3686 12.5505 85.8647 20.7526C85.0575 21.2721 83.3553 23.5508 82.442 23.3336C82.2235 23.2814 79.6352 21.044 79.0314 20.6262C63.3774 9.81008 42.0372 10.7776 27.9095 23.2347C27.0326 23.7377 24.4383 21.1264 24.6112 20.5327C24.8509 19.7026 30.4462 15.9397 31.584 15.2772C37.6526 11.7534 44.9198 9.59018 52.1293 9.15039H52.1263Z" fill="white"/>
<path d="M53.0396 19.0484C61.9149 18.5207 72.2164 21.5635 77.9603 27.8635L74.838 30.4912C64.7216 21.5552 49.9446 20.6344 38.4355 28.0834C37.8529 28.4599 35.4862 30.5545 35.0887 30.4912L32.1879 27.6628C37.595 22.5255 45.2232 19.513 53.0396 19.0484Z" fill="white"/>
</g>
<defs>
<clipPath id="clip0_10_89">
<rect width="115" height="105" fill="white"/>
</clipPath>
</defs>
</svg>
