<svg width="269" height="258" viewBox="0 0 269 258" fill="none" xmlns="http://www.w3.org/2000/svg">
<g filter="url(#filter0_f_239_64)">
<ellipse cx="134.5" cy="129" rx="55.5" ry="50" fill="white"/>
</g>
<g clip-path="url(#clip0_239_64)">
<path d="M154.925 78.0243C157.882 78.3698 159.607 81.637 158.153 84.0419C151.066 91.0825 143.588 97.8322 136.263 104.679C132.721 107.988 129.184 111.327 125.629 114.635C119.522 120.318 114.942 126.395 105.42 126.877C85.5691 127.881 76.1145 104.814 91.4751 93.3799C100.723 86.4969 113.224 88.6503 120.618 96.7699C124.325 100.84 118.746 105.944 114.393 102.542C113.006 101.457 112.019 100.098 110.435 99.1415C103.398 94.9014 93.8594 98.8551 92.7372 106.552C91.2712 116.613 103.944 122.682 111.989 115.94L151.361 79.0456C151.999 78.5486 152.886 78.1152 153.722 78.0243C154.008 77.9924 154.642 77.9909 154.925 78.0243Z" fill="#BE0000"/>
<path d="M164.634 89.2171C172.37 88.6897 178.362 93.4557 181.154 99.7992C187.638 114.532 174.196 129.632 157.412 126.47C151.433 125.344 148.399 122.527 144.235 118.78C142.863 117.546 138.267 113.638 137.594 112.377C135.493 108.439 140.602 104.676 144.289 107.378C147.391 109.989 150.254 113.145 153.364 115.709C162.443 123.194 176.262 116.002 173.733 104.914C172.783 100.745 168.875 95.9046 163.68 97.6397C160.46 98.7141 157.761 103.856 154.658 104.159C151.216 104.495 148.705 101.603 149.957 98.5884C150.431 97.4457 154.539 93.7436 155.723 92.7707C158.192 90.7416 161.319 89.4429 164.634 89.2171Z" fill="#BE0000"/>
<path d="M182.311 153.298V149.529C182.311 149.473 182.042 148.906 181.968 148.824C181.464 148.27 180.021 148.27 179.351 148.456C178.919 149.491 177.302 157.007 176.854 157.304C176.742 157.379 176.677 157.38 176.55 157.395C175.8 157.485 172.855 157.494 172.137 157.385C171.852 157.342 171.537 157.106 171.601 156.809L174.243 148.835L174.289 148.365H172.132C172.021 148.365 171.81 147.985 171.787 147.848C171.691 147.283 171.704 145.374 171.778 144.781C171.822 144.437 171.986 144.208 172.353 144.105C175.593 144.216 179.046 143.888 182.263 144.085C190.108 144.567 187.462 151.7 187.936 156.697L187.631 157.344H179.806C179.6 157.203 179.531 157.015 179.502 156.788C179.455 156.418 179.459 153.87 179.556 153.67C179.58 153.623 179.927 153.296 179.956 153.296H182.313L182.311 153.298Z" fill="#BE0000"/>
<path d="M121.851 144.49C122.616 143.808 126.059 144.043 127.061 144.387C129.191 145.116 129.636 147.177 129.747 149.061C130.116 155.297 127.735 158.088 120.766 157.577C113.02 157.009 115.047 149.814 114.792 144.783C114.809 144.425 115.071 144.148 115.453 144.092C115.866 144.032 119.268 144.042 119.507 144.134C119.661 144.193 119.937 144.507 119.917 144.686C120.065 146.944 119.703 149.444 119.908 151.672C119.962 152.258 120.089 152.622 120.645 152.942C121.799 153.607 124.07 153.475 124.23 151.952C124.301 151.282 124.301 149.28 123.981 148.73C123.396 147.726 121.79 149.174 121.538 148.112C121.435 147.68 121.45 145.64 121.514 145.152C121.541 144.94 121.691 144.631 121.851 144.489V144.49Z" fill="#BE0000"/>
<path d="M83.2944 144.086C86.0999 143.975 88.9628 144.275 90.1642 146.972C92.0834 151.279 89.1161 155.753 84.6508 157.207C84.2515 157.338 82.4637 157.83 82.1957 157.72C82.1452 157.698 81.916 157.492 81.8857 157.444C81.547 156.886 81.9261 154.255 81.8115 153.457C82.4535 152.582 83.6634 152.705 84.3425 151.803C84.944 151.005 85.2507 148.797 83.9229 148.483C82.344 148.109 80.2243 148.568 78.6252 148.371C78.2359 148.324 78.118 148.106 78.0759 147.763C78.2612 145.79 77.8366 143.454 78.0759 141.524C78.118 141.182 78.2359 140.965 78.6252 140.917C79.3716 140.826 82.0036 140.824 82.7484 140.917C82.9119 140.936 83.2944 141.13 83.2944 141.247V144.086Z" fill="#BE0000"/>
<path d="M133.132 114.896C137.2 114.44 139.763 118.545 137.218 121.477C136.459 122.353 132.942 125.705 132.044 126.261C127.846 128.856 122.923 123.967 126.281 120.172C127.048 119.307 130.938 115.672 131.828 115.268C132.214 115.094 132.706 114.944 133.132 114.896Z" fill="#BE0000"/>
<path d="M157.884 148.18C157.729 148.139 157.467 147.741 157.437 147.569C157.344 147.024 157.37 145.455 157.427 144.872C157.462 144.511 157.542 144.278 157.927 144.128L169.969 144.136C170.029 144.16 170.294 144.405 170.319 144.461C170.42 144.689 170.422 147.421 170.344 147.739C170.188 148.388 169.295 148.12 168.782 148.197C167.711 150.943 168.557 154.13 168.213 157.02C168.026 157.251 167.822 157.362 167.515 157.395C166.58 157.498 164.246 157.485 163.293 157.398C163.009 157.373 162.861 157.354 162.699 157.112C162.731 154.799 162.477 152.299 162.642 149.993C162.672 149.571 162.782 149.044 162.873 148.626C162.891 148.542 163.154 148.182 162.897 148.182H157.88L157.884 148.18Z" fill="#BE0000"/>
<path d="M135.833 144.105C136.733 143.922 139.953 144.031 141.033 144.081C150.045 144.499 147.206 150.644 147.703 156.694C147.669 157.047 147.447 157.345 147.054 157.394C146.247 157.492 143.438 157.492 142.629 157.394C142.316 157.356 142.098 157.189 142.078 156.882C141.972 154.716 142.238 152.416 142.088 150.267C142.014 149.202 141.852 148.348 140.521 148.185C139.588 148.071 136.101 148.363 135.608 148.089C135.552 148.057 135.441 147.95 135.415 147.895C135.323 147.7 135.306 144.946 135.358 144.59C135.397 144.32 135.54 144.163 135.837 144.104L135.833 144.105Z" fill="#BE0000"/>
<path d="M150.38 144.105L155.172 144.087L155.705 144.523L155.73 156.791C155.725 157.057 155.476 157.241 155.253 157.371L150.36 157.388L149.851 156.93L149.804 144.781C149.812 144.458 150.045 144.19 150.378 144.105H150.38Z" fill="#BE0000"/>
<path d="M107.343 144.105C108.794 144.204 110.641 143.907 112.043 144.081C112.339 144.117 112.454 144.255 112.637 144.46V151.434L112.287 151.76H107.174C106.871 151.556 106.8 151.355 106.767 151.022C106.57 149.042 106.925 146.79 106.77 144.781C106.778 144.458 107.011 144.19 107.345 144.105H107.343Z" fill="#BE0000"/>
<path d="M150.008 166.974L149.657 173.395H146.648C146.42 173.259 146.449 172.21 146.542 172.087L147.837 171.987L148.003 171.767C148.036 170.166 147.88 168.553 148.203 166.976C148.158 166.933 147.47 167.023 147.266 166.961C146.89 166.844 146.904 165.694 147.199 165.533C147.391 165.427 151.152 165.448 151.668 165.485C152.945 165.572 154.291 166.051 154.803 167.229C155.211 168.167 155.282 171.919 155.13 172.983C155.097 173.218 155.048 173.347 154.771 173.395C154.495 173.444 153.304 173.469 153.169 173.212C152.908 171.707 153.359 169.807 153.095 168.349C153.007 167.861 152.67 167.444 152.207 167.22C152.121 167.179 151.598 166.979 151.565 166.979H150.009L150.008 166.974Z" fill="#BE0000"/>
<path d="M94.68 140.923H98.0905L98.3332 141.421C97.8782 143.199 97.8631 145.24 97.4132 146.994C97.2885 147.482 97.0526 147.856 96.4914 147.907C95.5731 147.992 93.0506 148.015 92.166 147.907C91.6116 147.839 91.6773 147.506 91.7885 147.083C92.0851 145.957 93.514 142.669 94.1088 141.606C94.2672 141.323 94.4104 141.129 94.6784 140.926L94.68 140.923Z" fill="#BE0000"/>
<path d="M101.503 140.923H104.913L105.156 141.421C104.701 143.199 104.686 145.24 104.236 146.994C104.111 147.482 103.875 147.856 103.314 147.907C102.396 147.992 99.8733 148.015 98.9887 147.907C98.4343 147.839 98.5 147.506 98.6112 147.083C98.9078 145.957 100.337 142.669 100.931 141.606C101.09 141.323 101.233 141.129 101.501 140.926L101.503 140.923Z" fill="#BE0000"/>
<path d="M91.0421 171.928C92.4457 171.493 94.6851 172.466 95.4198 170.823C95.7416 170.102 95.7534 168.621 95.3726 167.914C94.6093 166.491 92.3412 167.364 91.0421 166.951C90.8618 166.785 90.8567 165.795 91.0084 165.615C91.1011 165.503 91.2274 165.497 91.3639 165.48C92.0228 165.4 93.5764 165.436 94.2655 165.497C96.2994 165.674 97.3862 166.83 97.5429 168.691C97.7283 170.893 97.1789 173.081 94.4526 173.368C93.8173 173.434 91.8442 173.492 91.2729 173.39C91.1685 173.372 91.0792 173.343 91.0101 173.263C90.8567 173.081 90.8652 172.093 91.0438 171.927L91.0421 171.928Z" fill="#BE0000"/>
<path d="M179.125 166.953C178.946 166.788 178.938 165.798 179.091 165.616L179.354 165.489C182.404 165.719 186.586 164.381 186.923 168.418C187.136 170.946 185.804 172.73 183.189 173.419C182.825 173.515 182.315 173.759 182.214 173.253C182.173 173.049 182.178 172.268 182.263 172.093C182.426 171.757 183.912 171.425 184.461 170.69C185.011 169.955 185.179 167.941 184.354 167.359C183.381 166.676 179.575 167.37 179.125 166.951V166.953Z" fill="#BE0000"/>
<path d="M113.591 166.974H109.729C109.363 166.974 109.449 165.722 109.579 165.486H116.552C116.865 165.486 116.867 166.573 116.752 166.789C116.575 167.126 115.92 166.883 115.596 167.02C115.419 167.12 115.252 167.856 115.226 168.071C115.027 169.614 115.418 171.499 115.202 172.981C115.183 173.104 115.074 173.395 114.946 173.395H113.441C113.298 173.313 113.303 173.21 113.286 173.074C113.138 171.896 113.171 169.064 113.286 167.855C113.318 167.517 113.412 167.264 113.591 166.974Z" fill="#BE0000"/>
<path d="M131.011 165.5C133.378 165.61 137.205 164.768 138.142 167.512C138.459 168.441 138.519 171.963 138.374 172.98C138.356 173.11 138.351 173.221 138.229 173.31C138.056 173.437 136.494 173.539 136.384 173.143C136.216 171.667 136.541 169.957 136.364 168.509C136.078 166.154 132.625 167.244 130.94 166.933L130.889 165.572L131.011 165.498V165.5Z" fill="#BE0000"/>
<path d="M85.6011 168.603C85.4596 167.553 84.7384 167.059 83.6482 166.971C82.9573 166.915 80.5916 167.112 80.1838 166.929C79.8872 166.795 79.8383 165.619 80.2545 165.504C82.1603 165.61 85.3854 164.969 86.7469 166.517C86.9727 166.774 87.5086 167.75 87.5086 168.044V173.254L87.3586 173.393H85.7528L85.6028 173.254C85.4613 171.792 85.7949 170.026 85.6028 168.602L85.6011 168.603Z" fill="#BE0000"/>
<path d="M125.43 168.603C125.288 167.553 124.567 167.059 123.477 166.971C122.786 166.915 120.42 167.112 120.013 166.929C119.716 166.795 119.667 165.619 120.083 165.504C121.989 165.61 125.214 164.969 126.576 166.517C126.802 166.774 127.337 167.75 127.337 168.044V173.254L127.187 173.393H125.582L125.432 173.254C125.29 171.792 125.624 170.026 125.432 168.602L125.43 168.603Z" fill="#BE0000"/>
<path d="M169.236 165.501C169.503 165.418 171.704 165.453 172.132 165.483C173.534 165.579 174.843 166.023 175.335 167.35C175.679 168.277 175.74 171.948 175.593 172.981C175.575 173.112 175.57 173.222 175.448 173.312C175.275 173.439 173.713 173.54 173.603 173.145C173.435 171.669 173.76 169.958 173.583 168.511C173.484 167.689 172.872 167.123 172.004 166.998C171.428 166.915 169.455 167.088 169.168 166.93C168.882 166.773 168.861 165.619 169.236 165.503V165.501Z" fill="#BE0000"/>
<path d="M104.863 168.509C104.561 166.435 102.183 167.162 100.694 166.979C99.9778 166.891 100.151 165.604 100.519 165.504C100.886 165.404 103.014 165.45 103.506 165.488C104.477 165.56 105.572 165.901 106.167 166.65C106.337 166.864 106.768 167.732 106.768 167.952V173.256L106.618 173.395H105.013L104.863 173.256V168.511V168.509Z" fill="#BE0000"/>
<path d="M179.101 176C178.869 173.619 179.069 171.184 178.997 168.785C179.017 168.414 179.214 168.396 179.548 168.365C180.023 168.323 180.997 168.224 181.002 168.796C180.818 170.907 181.27 173.43 181.011 175.491C180.984 175.7 180.936 175.859 180.758 176H179.103H179.101Z" fill="#BE0000"/>
<path d="M80.2546 168.39C80.5579 168.306 81.8587 168.273 81.9699 168.621C81.8638 169.969 82.1822 171.678 81.9952 172.98C81.9699 173.162 81.9362 173.316 81.7188 173.375C81.4155 173.459 80.1147 173.492 80.0035 173.143C80.1096 171.796 79.7912 170.087 79.9782 168.785C80.0035 168.603 80.0372 168.449 80.2546 168.39Z" fill="#BE0000"/>
<path d="M120.082 168.39C120.385 168.306 121.686 168.273 121.797 168.621C121.691 169.969 122.009 171.678 121.822 172.98C121.797 173.162 121.763 173.316 121.546 173.375C121.243 173.459 119.942 173.492 119.831 173.143C119.937 171.796 119.618 170.087 119.805 168.785C119.831 168.603 119.864 168.449 120.082 168.39Z" fill="#BE0000"/>
<path d="M130.997 168.37H132.601L132.753 168.509V173.256L132.601 173.395H130.997L130.847 173.256V168.509L130.997 168.37Z" fill="#BE0000"/>
<path d="M158.586 165.486H160.291L160.441 165.625V169.999L160.291 170.138H158.586L158.435 169.999V165.625L158.586 165.486Z" fill="#BE0000"/>
<path d="M164.004 165.486H165.709L165.859 165.625V169.999L165.709 170.138H164.004L163.852 169.999V165.625L164.004 165.486Z" fill="#BE0000"/>
</g>
<defs>
<filter id="filter0_f_239_64" x="0.5" y="0.5" width="268" height="257" filterUnits="userSpaceOnUse" color-interpolation-filters="sRGB">
<feFlood flood-opacity="0" result="BackgroundImageFix"/>
<feBlend mode="normal" in="SourceGraphic" in2="BackgroundImageFix" result="shape"/>
<feGaussianBlur stdDeviation="39.25" result="effect1_foregroundBlur_239_64"/>
</filter>
<clipPath id="clip0_239_64">
<rect width="110" height="98" fill="white" transform="translate(78 78)"/>
</clipPath>
</defs>
</svg>
