<svg width="261" height="204" viewBox="0 0 261 204" fill="none" xmlns="http://www.w3.org/2000/svg">
<g clip-path="url(#clip0_100_2)">
<path d="M106.58 161.06C122.39 160.19 137.93 156.39 152.43 150.03C166.93 143.67 180.26 134.76 191.6 123.76C203.14 112.56 212.48 99.1499 219.12 84.5199C225.76 69.8899 229.9 53.7499 230.95 37.5199C231.21 33.4699 231.29 29.3999 231.16 25.3399C231.03 21.2799 230.85 17.2499 230.12 13.3099C229.39 9.36993 227.73 5.84993 224.45 3.51993C221.17 1.18993 217.24 0.559934 213.46 0.199934C198.4 -1.23007 183.59 5.73993 173.01 16.1299C161.27 27.6599 155.1 43.5199 152.88 59.5999C151.72 68.0299 151.53 76.5699 152.05 85.0599C152.57 93.5499 153.31 101.97 159.71 107.82C162.67 110.53 166.24 112.45 169.9 114.05C173.56 115.65 176.96 116.85 180.62 117.86C187.94 119.87 195.56 120.83 203.15 120.78C218.26 120.68 233.41 116.58 246.36 108.75C249.55 106.82 252.59 104.65 255.49 102.3L252.98 101.64C258.08 129.72 263.27 161.68 245.34 186.5C241.25 192.16 236.02 196.93 229.88 200.29L232.08 201.19C226.72 177.94 219.95 154.9 210.03 133.15C200.31 111.84 187.33 91.7599 170.03 75.7999C160.89 67.3699 150.48 59.5699 138.43 55.9599C124.94 51.9099 110.53 54.1499 97 56.7899C70.77 61.9099 45.35 71.2899 22.07 84.4099C16.85 87.3499 11.39 90.2999 6.84003 94.2499C2.83003 97.7099 -0.269974 102.49 0.0200257 108C0.550026 117.96 10.91 123.6 19.17 126.62C21.46 127.46 23.8 128.15 26.16 128.73C28.03 129.19 28.83 126.3 26.96 125.84C22.25 124.69 17.6 123.09 13.35 120.74C9.57003 118.65 5.74003 115.81 3.93003 111.75C-0.919974 100.85 12.42 93.4699 20.01 89.0199C42.27 75.9799 66.56 66.4799 91.74 60.9099C98.26 59.4699 104.85 58.2099 111.48 57.4199C118.11 56.6299 125.29 56.2999 132.08 57.4999C144.35 59.6599 155.01 66.6799 164.31 74.6699C181.56 89.4999 194.71 108.41 204.68 128.75C214.65 149.09 221.73 171.39 227.22 193.63C227.9 196.4 228.56 199.17 229.2 201.95C229.42 202.92 230.59 203.29 231.4 202.85C242.85 196.59 250.86 185.76 255.57 173.77C261.14 159.6 261.68 144.12 260.21 129.13C259.27 119.62 257.58 110.21 255.88 100.81C255.66 99.5899 254.16 99.5099 253.37 100.15C242.12 109.3 228.25 115 213.92 116.99C199.59 118.98 184.66 117.22 171.41 111.44C167.88 109.9 164.34 108.08 161.53 105.4C158.72 102.72 157.04 99.0999 156.2 95.2199C155.36 91.3399 155.15 87.2599 154.95 83.2799C154.75 79.2999 154.71 75.0499 154.87 70.9399C155.5 55.1399 159.25 38.8899 168.58 25.8499C176.86 14.2799 189.8 5.28993 204.07 3.35993C207.55 2.88993 211.13 2.86993 214.61 3.30993C218.09 3.74993 222.28 4.77993 224.68 7.75993C227.08 10.7399 227.44 14.7799 227.75 18.3999C228.08 22.2399 228.23 26.0999 228.21 29.9499C228.12 45.4599 225.16 60.8899 219.68 75.3899C214.18 89.9299 206.05 103.53 195.69 115.14C185.33 126.75 173.58 135.77 160.28 142.88C146.99 149.99 132.48 154.8 117.56 156.97C113.92 157.5 110.24 157.85 106.57 158.05C104.65 158.16 104.64 161.16 106.57 161.05L106.58 161.06Z" fill="black"/>
</g>
<defs>
<clipPath id="clip0_100_2">
<rect width="260.91" height="203.04" fill="white"/>
</clipPath>
</defs>
</svg>
