<svg width="243" height="151" viewBox="0 0 243 151" fill="none" xmlns="http://www.w3.org/2000/svg">
<g clip-path="url(#clip0_100_5)">
<path d="M63.94 32.3198C53.47 26.9598 40.77 28.6598 30.83 34.4198C20.63 40.3398 13.31 50.1998 7.74002 60.3798C2.03002 70.8098 -3.17998 83.5998 2.36002 95.1798C6.81002 104.48 16.8 109.72 26.23 112.63C38.52 116.43 51.81 117.53 64.61 117.37C78.42 117.2 92.17 115.33 105.71 112.72C119.25 110.11 132.34 106.82 145.55 103.43C158.31 100.16 171.03 96.6398 183.36 91.9698C194.97 87.5698 206.44 82.2298 216.55 74.9598C225.4 68.5898 233.47 60.5898 238.2 50.6398C242.53 41.5298 243.57 31.4598 240.38 21.8098C237.55 13.2398 231.64 5.36976 223.14 1.83976C212.11 -2.74024 200.41 1.88976 191.07 8.09976C186.13 11.3898 181.48 15.1298 176.86 18.8498C172.24 22.5698 167.94 26.2198 163.67 30.1298C147.17 45.2498 131.99 64.1098 128.66 86.9198C127 98.2798 128.72 110.32 136.64 119.08C142.99 126.1 152.18 130.01 161.44 131.26C171.49 132.62 181.43 130.84 190.59 126.59C201.3 121.63 210.46 113.82 218.57 105.35C222.55 101.19 226.31 96.8398 230 92.4198L227.88 90.2998C221.67 98.1598 215 106.69 213.33 116.85C212.58 121.43 212.96 125.85 214.83 130.12C216.54 134.02 219.35 137.5 222.91 139.87C226.8 142.46 231.64 143.38 236.1 141.8L234.25 139.95C233.32 142.83 232.39 145.71 231.45 148.59C230.85 150.43 233.75 151.22 234.34 149.39C235.27 146.51 236.2 143.63 237.14 140.75C237.48 139.71 236.36 138.53 235.29 138.9C227.84 141.54 220.9 135.85 217.79 129.41C213.92 121.42 216.77 112.44 220.96 105.19C223.57 100.66 226.77 96.5098 230 92.4198C231.17 90.9298 229.13 88.7998 227.88 90.2998C214.32 106.56 197.88 124.55 175.9 128.15C167.08 129.59 157.55 128.57 149.43 124.73C140.73 120.62 134.29 113.35 132.04 103.91C129.42 92.8898 132.04 80.8998 136.43 70.6798C140.67 60.7898 146.97 51.9098 154.14 43.9398C161.31 35.9698 169.61 28.5898 178.06 21.7198C182.55 18.0698 187.08 14.4198 191.87 11.1698C196.66 7.91976 201.82 5.02976 207.49 3.67976C212.32 2.53976 217.45 2.68976 222.07 4.60976C225.96 6.21976 229.3 8.97976 231.93 12.2398C237.43 19.0398 239.99 28.2398 239.17 36.9098C238.22 47.0798 232.32 56.4098 225.33 63.5698C217.64 71.4498 208.2 77.3498 198.39 82.2198C187.13 87.8098 175.23 91.9698 163.19 95.5198C151.15 99.0698 138.79 102.14 126.52 105.09C101.02 111.22 74.68 116.24 48.35 113.73C37.43 112.69 25.83 110.7 16.22 105.12C12.16 102.76 8.44002 99.6598 6.00002 95.6098C3.09002 90.7898 2.43002 85.0898 3.41002 79.5998C4.47002 73.6498 7.01002 68.0898 9.85002 62.7998C12.5 57.8698 15.47 53.0698 19.02 48.7398C26.1 40.1098 35.73 33.2298 47.12 32.1898C52.38 31.7098 57.7 32.4898 62.43 34.9098C64.15 35.7898 65.66 33.1998 63.94 32.3198Z" fill="black"/>
</g>
<defs>
<clipPath id="clip0_100_5">
<rect width="242.24" height="150.45" fill="white"/>
</clipPath>
</defs>
</svg>
