<svg width="186" height="416" viewBox="0 0 186 416" fill="none" xmlns="http://www.w3.org/2000/svg">
<path d="M93.1643 25.88C140.545 25.88 179.045 64.9959 179.045 113.36C179.045 161.725 140.545 200.84 93.1643 200.84C45.784 200.84 7.28369 161.725 7.28345 113.36C7.28345 64.996 45.7838 25.88 93.1643 25.88Z" fill="white" stroke="black" stroke-width="6"/>
<path d="M92.629 201.757L92.629 341.12" stroke="black" stroke-width="6"/>
<line y1="-3" x2="115.72" y2="-3" transform="matrix(0.777321 0.629104 -0.651191 0.758914 92.0936 245.44)" stroke="black" stroke-width="6"/>
<line y1="-3" x2="98.5418" y2="-3" transform="matrix(-0.891095 0.453818 -0.475113 -0.879925 92.0936 242.32)" stroke="black" stroke-width="6"/>
<path d="M92.6289 1.5C118.051 1.5 140.994 6.01511 157.525 13.2539C165.793 16.8743 172.39 21.1466 176.899 25.8145C181.401 30.475 183.758 35.4554 183.758 40.5596C183.758 45.6639 181.401 50.645 176.899 55.3057C172.39 59.9735 165.793 64.2459 157.525 67.8662C140.994 75.105 118.051 79.6201 92.6289 79.6201C67.2073 79.6201 44.2642 75.105 27.7324 67.8662C19.4644 64.2459 12.8673 59.9735 8.3584 55.3057C3.85645 50.645 1.5 45.6639 1.5 40.5596C1.50013 35.4554 3.85657 30.475 8.3584 25.8145C12.8673 21.1466 19.4644 16.8743 27.7324 13.2539C44.2642 6.01511 67.2073 1.5 92.6289 1.5Z" fill="#51502B" stroke="black" stroke-width="3"/>
<line y1="-3" x2="94.6088" y2="-3" transform="matrix(0.565938 0.824448 -0.839417 0.543487 91.0227 338)" stroke="black" stroke-width="6"/>
<line y1="-3" x2="89.3615" y2="-3" transform="matrix(-0.56322 0.826307 -0.841163 -0.540782 88.8809 338)" stroke="black" stroke-width="6"/>
</svg>
